<?xml version="1.0" encoding="iso-8859-1"?>
<!-- Generator: Adobe Illustrator 16.0.0, SVG Export Plug-In . SVG Version: 6.00 Build 0)  -->
<!DOCTYPE svg PUBLIC "-//W3C//DTD SVG 1.1//EN" "http://www.w3.org/Graphics/SVG/1.1/DTD/svg11.dtd">
<svg class="twi" version="1.1" xmlns="http://www.w3.org/2000/svg" xmlns:xlink="http://www.w3.org/1999/xlink" x="0px" y="0px" viewBox="0 0 1000 1000" enable-background="new 0 0 1000 1000" xml:space="preserve">
  <g>
    <path d="M990,500c0-270.6-219.4-490-490-490C229.4,10,10,229.4,10,500c0,270.6,219.4,490,490,490C770.6,990,990,770.6,990,500z M236.2,674.1c8.5,1.1,17.1,1.6,25.8,1.6c50.7,0.1,97.4-18.2,134.4-49c-47.4-1.1-87.4-34.6-101.1-80.6c6.6,1.4,13.4,2.2,20.4,2.2c9.9,0,19.4-1.3,28.5-3.9c-49.5-11-86.9-58-86.9-113.9c0-0.5,0-1,0-1.5c14.6,8.8,31.3,14.2,49,15c-29-21-48.1-56.6-48.1-96.7c0-21.2,5.3-41,14.7-57.9C326.3,360.1,406.1,407,496,412.8c-1.9-8.4-2.8-17.2-2.8-26.1c0-63.3,48.5-113.8,108.2-112.8c31.1,0.5,59.3,14.8,79,37.3c24.7-4.7,47.8-13.8,68.7-26.5c-8.1,26.4-25.3,48.4-47.6,62.2c21.9-2.5,42.8-8.2,62.2-17c-14.5,22.6-32.9,42.3-54,58.1c0.2,4.9,0.3,9.8,0.3,14.7c0,150.3-108.9,323.6-308,323.5C341,726.2,284,707,236.2,674.1z"></path>
  </g>
</svg>